# xmcd
#
# Track frame offsets: 
#        150
#        17166
#        39277
#        51635
#        72226
#        89838
#        103868
#        118601
#        129575
#        145444
#        166474
#        198124
#        214608
#        225542
#
# Disc length: 3222 seconds
#
# Revision: 0
# Processed by: cddbd v1.5.2PL0 Copyright (c) Steve Scherf et al.
# Submitted via: ExactAudioCopy v0.95b4
#
DISCID=ce0c940e
DTITLE=Fleetwood Mac - Then Play On (Original LP Version)
DYEAR=1969
DGENRE=Blues
TTITLE0=Coming Your Way
TTITLE1=Closing My Eyes
TTITLE2=Fighting For Madge
TTITLE3=When You Say
TTITLE4=Show-Biz Blues
TTITLE5=Under Way
TTITLE6=One Sunny Day
TTITLE7=Although The Sun Is Shining
TTITLE8=Rattlesnake Shake
TTITLE9=Without You
TTITLE10=Searching For Madge
TTITLE11=My Dream
TTITLE12=Like Crying
TTITLE13=Before The Beginning
EXTD=
EXTT0=
EXTT1=
EXTT2=
EXTT3=
EXTT4=
EXTT5=
EXTT6=
EXTT7=
EXTT8=
EXTT9=
EXTT10=
EXTT11=
EXTT12=
EXTT13=
PLAYORDER=
